#!OML:ASF F:\VICON\USERDATA\INSTALL\rory3\rory3.ASF
:FULLY-SPECIFIED
:DEGREES
96
root 5.58745 17.7929 -12.3518 -0.731009 0.47484 3.68355
lowerback 11.7134 -0.893517 -4.57333
upperback 0.155481 -1.74041 1.01397
thorax -6.2488 -0.698869 3.94655
lowerneck -17.2049 -2.79526 -1.82086
upperneck 16.546 -3.39798 0.195687
head 7.98902 -1.70981 -0.0382353
rclavicle 9.19379e-015 1.98785e-015
rhumerus -32.3495 -18.1189 -78.666
rradius 25.8289
rwrist 3.79984
rhand -16.1732 29.0725
rfingers 7.12502
rthumb 10.033 -0.668333
lclavicle 9.19379e-015 1.98785e-015
lhumerus -21.927 -9.05104 81.6195
lradius 32.353
lwrist 8.76819
lhand -29.2482 23.0509
lfingers 7.12502
lthumb -2.59142 53.0149
rfemur -31.4065 8.14242 13.711
rtibia 18.3329
rfoot -11.1733 -13.2553
rtoes -1.14315
lfemur 8.54412 -2.07402 -28.2584
ltibia 16.0352
lfoot -17.0618 1.18335
ltoes 1.57671
97
root 5.56994 17.7816 -12.182 -0.731347 0.680314 3.91158
lowerback 11.7965 -0.954593 -4.86558
upperback 0.21067 -1.86472 1.00365
thorax -6.21596 -0.753173 4.12306
lowerneck -17.1315 -2.82964 -1.79268
upperneck 16.3085 -3.43242 0.0972473
head 7.89494 -1.73465 -0.076358
rclavicle 1.98785e-015 -8.74653e-015
rhumerus -32.3139 -17.9239 -78.792
rradius 26.2172
rwrist 4.11108
rhand -16.2847 28.8553
rfingers 7.12502
rthumb 9.92547 -0.890712
lclavicle 1.98785e-015 -8.74653e-015
lhumerus -21.5564 -9.26816 81.5318
lradius 32.4801
lwrist 8.51228
lhand -28.0481 26.7943
lfingers 7.12502
lthumb -1.43241 56.7692
rfemur -31.1997 8.98706 12.9391
rtibia 16.7532
rfoot -11.7573 -14.1503
rtoes -4.68959
lfemur 9.45734 -2.11228 -28.4555
ltibia 15.5027
lfoot -16.9479 0.876766
ltoes 2.53104
98
root 5.55224 17.7653 -12.0094 -0.727674 0.914122 4.18286
lowerback 11.8805 -0.985861 -5.09339
upperback 0.403932 -1.94288 0.909589
thorax -6.04547 -0.795544 4.16342
lowerneck -17.7836 -2.91347 -1.68784
upperneck 16.4121 -3.54992 0.042321
head 8.04101 -1.78683 -0.136274
rclavicle 3.23025e-015 -1.98785e-015
rhumerus -31.9893 -18.2269 -78.9226
rradius 27.0518
rwrist 6.36771
rhand -15.1597 23.9603
rfingers 7.12502
rthumb 11.0107 -5.73091
lclavicle 3.23025e-015 -1.98785e-015
lhumerus -20.7691 -9.87118 81.3675
lradius 32.509
lwrist 8.36521
lhand -26.3329 34.4368
lfingers 7.12502
lthumb 0.224235 64.4164
rfemur -30.9654 9.31531 12.3584
rtibia 15.5419
rfoot -12.3067 -14.8776
rtoes -6.80707
lfemur 10.1908 -2.10968 -28.6815
ltibia 15.2973
lfoot -16.8841 0.727539
ltoes 1.6856
99
root 5.52873 17.7431 -11.8381 -0.545702 1.13035 3.98588
lowerback 11.7644 -1.04739 -4.89243
upperback 0.515858 -1.98503 0.966885
thorax -5.86121 -0.829359 4.11017
lowerneck -18.2711 -3.00276 -1.73801
upperneck 16.5328 -3.67391 0.165623
head 8.17088 -1.83382 -0.110813
rclavicle -1.68967e-014 -1.98785e-015
rhumerus -31.6585 -18.519 -79.031
rradius 25.8616
rwrist 3.811
rhand -15.1586 24.4716
rfingers 7.12502
rthumb 11.0117 -5.2196
lclavicle -1.68967e-014 -1.98785e-015
lhumerus -20.0849 -10.1063 81.2121
lradius 32.4408
lwrist 7.84611
lhand -26.0403 35.9513
lfingers 7.12502
lthumb 0.506777 65.9305
rfemur -31.0819 10.0881 12.1416
rtibia 14.9439
rfoot -13.6114 -16.1619
rtoes -3.27788
lfemur 10.6239 -2.16756 -28.3387
ltibia 15.2403
lfoot -16.865 0.566663
ltoes 0.884778
100
root 5.50648 17.7303 -11.6667 -0.377455 1.34224 3.83892
lowerback 11.7239 -1.19151 -4.8274
upperback 0.45411 -2.15877 1.10171
thorax -5.88278 -0.912807 4.24376
lowerneck -18.2028 -2.91016 -1.91777
upperneck 16.5751 -3.52537 0.289678
head 8.17788 -1.76239 -0.0213317
rclavicle 2.43014e-014 -4.77083e-015
rhumerus -31.696 -18.2508 -79.0574
rradius 25.9142
rwrist 3.89143
rhand -15.2938 22.8819
rfingers 7.12502
rthumb 10.8813 -6.8162
lclavicle 2.43014e-014 -4.77083e-015
lhumerus -19.7796 -9.99051 81.1631
lradius 32.1335
lwrist 7.66606
lhand -26.8581 32.3861
lfingers 7.12502
lthumb -0.283045 62.3657
rfemur -31.3112 9.40271 12.5762
rtibia 15.0659
rfoot -14.885 -16.0127
rtoes 5.67265
lfemur 11.0374 -2.45723 -28.1099
ltibia 15.2389
lfoot -16.8926 0.604708
ltoes -0.446277
101
root 5.48848 17.7182 -11.4921 -0.232377 1.33873 3.88378
lowerback 11.7851 -1.26365 -4.97187
upperback 0.302767 -2.27293 1.22248
thorax -6.05544 -0.954299 4.47858
lowerneck -18.0427 -2.79656 -2.15296
upperneck 16.6328 -3.32092 0.340392
head 8.17259 -1.67624 0.0607019
rclavicle -1.63997e-015 -6.36111e-015
rhumerus -31.9548 -17.6028 -79.0543
rradius 26.3559
rwrist 4.15217
rhand -15.2848 23.0099
rfingers 7.12502
rthumb 10.89 -6.68767
lclavicle -1.63997e-015 -6.36111e-015
lhumerus -19.6996 -10.0192 81.2415
lradius 31.9021
lwrist 7.89373
lhand -26.1204 32.2654
lfingers 7.12502
lthumb 0.429498 62.2447
rfemur -31.6003 8.3076 13.125
rtibia 15.6451
rfoot -13.6389 -15.4234
rtoes 5.20135
lfemur 11.3734 -2.65232 -28.1182
ltibia 15.4608
lfoot -16.9771 0.595314
ltoes -1.61144
102
root 5.47183 17.7006 -11.3081 -0.273085 1.24692 4.08277
lowerback 11.9553 -1.20311 -5.14223
upperback 0.330476 -2.22716 1.16943
thorax -6.12269 -0.925744 4.51785
lowerneck -18.1961 -2.77867 -2.11657
upperneck 16.586 -3.28661 0.265991
head 8.18119 -1.66478 0.032439
rclavicle -1.16289e-014 7.95139e-016
rhumerus -31.971 -17.7973 -78.9935
rradius 26.5273
rwrist 4.78516
rhand -15.771 25.1972
rfingers 7.12502
rthumb 10.421 -4.52458
lclavicle -1.16289e-014 7.95139e-016
lhumerus -19.3982 -10.2895 81.2006
lradius 31.8455
lwrist 7.83699
lhand -25.5177 35.0812
lfingers 7.12502
lthumb 1.01152 65.0585
rfemur -31.8229 7.09861 13.6331
rtibia 16.7715
rfoot -12.5167 -14.4313
rtoes 6.5401
lfemur 11.9699 -2.71386 -28.3213
ltibia 15.6677
lfoot -16.9316 0.594934
ltoes -2.91689
103
root 5.44997 17.6786 -11.1274 -0.343028 1.26882 4.00492
lowerback 12.1612 -1.1887 -5.02686
upperback 0.417029 -2.20248 1.14027
thorax -6.15416 -0.917932 4.42351
lowerneck -18.3737 -2.83451 -1.93487
upperneck 16.5352 -3.38705 0.164557
head 8.19083 -1.71047 -0.0453831
rclavicle 6.11263e-015 -1.51076e-014
rhumerus -31.8186 -18.0107 -79.1514
rradius 26.1273
rwrist 4.04001
rhand -16.4385 28.1397
rfingers 7.12502
rthumb 9.77715 -1.61335
lclavicle 6.11263e-015 -1.51076e-014
lhumerus -19.0126 -10.4656 81.013
lradius 31.7179
lwrist 7.30431
lhand -25.4968 36.0255
lfingers 7.12502
lthumb 1.03177 66.0027
rfemur -32.0754 6.22392 14.2814
rtibia 18.1808
rfoot -11.2393 -13.9073
rtoes 10.4847
lfemur 12.567 -2.88533 -28.1855
ltibia 15.9282
lfoot -16.7531 0.500504
ltoes -4.18212
104
root 5.42614 17.6529 -10.9479 -0.397129 1.32514 4.14061
lowerback 12.305 -1.18885 -5.18153
upperback 0.433303 -2.23298 1.11587
thorax -6.20949 -0.927026 4.4958
lowerneck -18.1419 -2.87656 -1.92692
upperneck 16.3897 -3.44762 0.146583
head 8.10169 -1.74137 -0.0554999
rclavicle 3.34455e-014 1.03368e-014
rhumerus -31.9446 -18.2256 -79.0316
rradius 27.0897
rwrist 6.77584
rhand -14.9075 23.2361
rfingers 7.12502
rthumb 11.254 -6.442
lclavicle 3.34455e-014 1.03368e-014
lhumerus -18.9255 -10.4211 80.9604
lradius 31.6147
lwrist 6.92037
lhand -26.5563 34.1933
lfingers 7.12502
lthumb 0.00842856 64.1731
rfemur -32.3015 5.61885 14.5769
rtibia 19.624
rfoot -11.6668 -13.6208
rtoes 7.34203
lfemur 13.0954 -3.0671 -28.2706
ltibia 16.2444
lfoot -16.5297 0.242463
ltoes -5.91324
105
root 5.40268 17.6367 -10.7578 -0.424442 1.42964 4.327
lowerback 12.3506 -1.25477 -5.43251
upperback 0.42146 -2.35873 1.11519
thorax -6.22373 -0.980532 4.6605
lowerneck -18.0071 -2.8202 -1.85751
upperneck 16.3015 -3.38406 0.108102
head 8.04603 -1.71137 -0.0690737
rclavicle -4.78077e-014 -1.59028e-014
rhumerus -32.0989 -18.1012 -78.9969
rradius 25.9794
rwrist 4.36007
rhand -13.6517 20.2677
rfingers 7.12502
rthumb 12.465 -9.34059
lclavicle -4.78077e-014 -1.59028e-014
lhumerus -19.093 -10.2467 80.9723
lradius 31.6422
lwrist 6.82614
lhand -27.0557 32.0631
lfingers 7.12502
lthumb -0.473852 62.0423
rfemur -32.4159 5.18922 14.7287
rtibia 21.0166
rfoot -11.6089 -13.335
rtoes 5.44322
lfemur 13.5422 -3.47359 -28.4775
ltibia 16.716
lfoot -16.2389 -0.0251838
ltoes -6.40016
106
root 5.38054 17.6326 -10.5577 -0.495153 1.70964 4.33325
lowerback 12.4375 -1.37014 -5.42377
upperback 0.423109 -2.51321 1.14907
thorax -6.25124 -1.05495 4.72101
lowerneck -18.1962 -2.76908 -1.91829
upperneck 16.4733 -3.31343 0.201682
head 8.13873 -1.67141 -0.0235641
rclavicle 2.13694e-015 2.46493e-014
rhumerus -32.2033 -18.3802 -78.7788
rradius 25.7774
rwrist 4.75386
rhand -14.4668 27.4363
rfingers 7.12502
rthumb 11.679 -2.21813
lclavicle 2.13694e-015 2.46493e-014
lhumerus -19.1749 -10.3624 81.0324
lradius 31.6387
lwrist 7.05377
lhand -27.5264 28.7542
lfingers 7.12502
lthumb -0.928503 58.7319
rfemur -32.3728 4.82097 14.9961
rtibia 22.4627
rfoot -10.554 -12.4278
rtoes 9.13398
lfemur 14.0816 -3.98263 -28.4888
ltibia 17.1721
lfoot -15.8502 -0.130144
ltoes -7.09626
